<?xml version="1.0" encoding="utf-8" standalone="no"?>
<!DOCTYPE svg PUBLIC "-//W3C//DTD SVG 1.1//EN"
  "http://www.w3.org/Graphics/SVG/1.1/DTD/svg11.dtd">
<svg xmlns:xlink="http://www.w3.org/1999/xlink" width="739.8pt" height="225.072pt" viewBox="0 0 739.8 225.072" xmlns="http://www.w3.org/2000/svg" version="1.1">
 <metadata>
  <rdf:RDF xmlns:dc="http://purl.org/dc/elements/1.1/" xmlns:cc="http://creativecommons.org/ns#" xmlns:rdf="http://www.w3.org/1999/02/22-rdf-syntax-ns#">
   <cc:Work>
    <dc:type rdf:resource="http://purl.org/dc/dcmitype/StillImage"/>
    <dc:date>2026-03-25T15:32:07.302108</dc:date>
    <dc:format>image/svg+xml</dc:format>
    <dc:creator>
     <cc:Agent>
      <dc:title>Matplotlib v3.10.7, https://matplotlib.org/</dc:title>
     </cc:Agent>
    </dc:creator>
   </cc:Work>
  </rdf:RDF>
 </metadata>
 <defs>
  <style type="text/css">*{stroke-linejoin: round; stroke-linecap: butt}</style>
 </defs>
 <g id="figure_1">
  <g id="patch_1">
   <path d="M 0 225.072 
L 739.8 225.072 
L 739.8 -0 
L 0 -0 
z
" style="fill: #f7f1e5"/>
  </g>
  <g id="axes_1">
   <g id="patch_2">
    <path d="M 52.9002 140.344704 
L 124.7148 140.344704 
Q 142.8498 140.344704 142.8498 135.077904 
L 142.8498 102.634416 
Q 142.8498 97.367616 124.7148 97.367616 
L 52.9002 97.367616 
Q 34.7652 97.367616 34.7652 102.634416 
L 34.7652 135.077904 
Q 34.7652 140.344704 52.9002 140.344704 
z
" clip-path="url(#p22e1dc939c)" style="fill: #f4e7c8; stroke: #d6c3a5; stroke-width: 1.6; stroke-linejoin: miter"/>
   </g>
   <g id="patch_3">
    <path d="M 165.3372 140.344704 
L 237.1518 140.344704 
Q 255.2868 140.344704 255.2868 135.077904 
L 255.2868 102.634416 
Q 255.2868 97.367616 237.1518 97.367616 
L 165.3372 97.367616 
Q 147.2022 97.367616 147.2022 102.634416 
L 147.2022 135.077904 
Q 147.2022 140.344704 165.3372 140.344704 
z
" clip-path="url(#p22e1dc939c)" style="fill: #fffaf0; stroke: #d6c3a5; stroke-width: 1.6; stroke-linejoin: miter"/>
   </g>
   <g id="patch_4">
    <path d="M 277.7742 140.344704 
L 349.5888 140.344704 
Q 367.7238 140.344704 367.7238 135.077904 
L 367.7238 102.634416 
Q 367.7238 97.367616 349.5888 97.367616 
L 277.7742 97.367616 
Q 259.6392 97.367616 259.6392 102.634416 
L 259.6392 135.077904 
Q 259.6392 140.344704 277.7742 140.344704 
z
" clip-path="url(#p22e1dc939c)" style="fill: #dbe9dc; stroke: #d6c3a5; stroke-width: 1.6; stroke-linejoin: miter"/>
   </g>
   <g id="patch_5">
    <path d="M 390.2112 140.344704 
L 462.0258 140.344704 
Q 480.1608 140.344704 480.1608 135.077904 
L 480.1608 102.634416 
Q 480.1608 97.367616 462.0258 97.367616 
L 390.2112 97.367616 
Q 372.0762 97.367616 372.0762 102.634416 
L 372.0762 135.077904 
Q 372.0762 140.344704 390.2112 140.344704 
z
" clip-path="url(#p22e1dc939c)" style="fill: #dce8f6; stroke: #d6c3a5; stroke-width: 1.6; stroke-linejoin: miter"/>
   </g>
   <g id="patch_6">
    <path d="M 502.6482 140.344704 
L 574.4628 140.344704 
Q 592.5978 140.344704 592.5978 135.077904 
L 592.5978 102.634416 
Q 592.5978 97.367616 574.4628 97.367616 
L 502.6482 97.367616 
Q 484.5132 97.367616 484.5132 102.634416 
L 484.5132 135.077904 
Q 484.5132 140.344704 502.6482 140.344704 
z
" clip-path="url(#p22e1dc939c)" style="fill: #dbe9dc; stroke: #d6c3a5; stroke-width: 1.6; stroke-linejoin: miter"/>
   </g>
   <g id="patch_7">
    <path d="M 615.0852 140.344704 
L 686.8998 140.344704 
Q 705.0348 140.344704 705.0348 135.077904 
L 705.0348 102.634416 
Q 705.0348 97.367616 686.8998 97.367616 
L 615.0852 97.367616 
Q 596.9502 97.367616 596.9502 102.634416 
L 596.9502 135.077904 
Q 596.9502 140.344704 615.0852 140.344704 
z
" clip-path="url(#p22e1dc939c)" style="fill: #f4e7c8; stroke: #d6c3a5; stroke-width: 1.6; stroke-linejoin: miter"/>
   </g>
   <g id="patch_8">
    <path d="M 138.143024 118.85616 
Q 145.023529 118.85616 149.891572 118.85616 
" clip-path="url(#p22e1dc939c)" style="fill: none; stroke: #8b5e34; stroke-width: 1.8; stroke-linecap: round"/>
    <path d="M 143.491572 115.65616 
L 149.891572 118.85616 
L 143.491572 122.05616 
z
" clip-path="url(#p22e1dc939c)" style="fill: #8b5e34; stroke: #8b5e34; stroke-width: 1.8; stroke-linecap: round"/>
   </g>
   <g id="patch_9">
    <path d="M 250.580024 118.85616 
Q 257.460529 118.85616 262.328572 118.85616 
" clip-path="url(#p22e1dc939c)" style="fill: none; stroke: #8b5e34; stroke-width: 1.8; stroke-linecap: round"/>
    <path d="M 255.928572 115.65616 
L 262.328572 118.85616 
L 255.928572 122.05616 
z
" clip-path="url(#p22e1dc939c)" style="fill: #8b5e34; stroke: #8b5e34; stroke-width: 1.8; stroke-linecap: round"/>
   </g>
   <g id="patch_10">
    <path d="M 363.017024 118.85616 
Q 369.897529 118.85616 374.765572 118.85616 
" clip-path="url(#p22e1dc939c)" style="fill: none; stroke: #8b5e34; stroke-width: 1.8; stroke-linecap: round"/>
    <path d="M 368.365572 115.65616 
L 374.765572 118.85616 
L 368.365572 122.05616 
z
" clip-path="url(#p22e1dc939c)" style="fill: #8b5e34; stroke: #8b5e34; stroke-width: 1.8; stroke-linecap: round"/>
   </g>
   <g id="patch_11">
    <path d="M 475.454024 118.85616 
Q 482.334529 118.85616 487.202572 118.85616 
" clip-path="url(#p22e1dc939c)" style="fill: none; stroke: #8b5e34; stroke-width: 1.8; stroke-linecap: round"/>
    <path d="M 480.802572 115.65616 
L 487.202572 118.85616 
L 480.802572 122.05616 
z
" clip-path="url(#p22e1dc939c)" style="fill: #8b5e34; stroke: #8b5e34; stroke-width: 1.8; stroke-linecap: round"/>
   </g>
   <g id="patch_12">
    <path d="M 587.891024 118.85616 
Q 594.771529 118.85616 599.639572 118.85616 
" clip-path="url(#p22e1dc939c)" style="fill: none; stroke: #8b5e34; stroke-width: 1.8; stroke-linecap: round"/>
    <path d="M 593.239572 115.65616 
L 599.639572 118.85616 
L 593.239572 122.05616 
z
" clip-path="url(#p22e1dc939c)" style="fill: #8b5e34; stroke: #8b5e34; stroke-width: 1.8; stroke-linecap: round"/>
   </g>
   <g id="text_1">
    <!-- 图2-1 文本梳理流程图 -->
    <g style="fill: #2f2517" transform="translate(43.47 33.05235) scale(0.2 -0.2)">
     <defs>
      <path id="HiraginoSansGB-W3-56fe" d="M 4410 4192 
C 4282 4173 4186 4166 3974 4166 
L 2746 4166 
C 2797 4237 2835 4294 2861 4326 
C 2874 4346 2880 4358 2886 4365 
C 2918 4410 2918 4410 2944 4448 
L 2554 4576 
C 2502 4448 2458 4346 2387 4243 
C 2131 3853 1754 3526 1222 3238 
C 1344 3155 1389 3110 1485 2982 
C 1837 3200 1958 3290 2227 3533 
C 2554 3187 2662 3085 2950 2867 
C 2413 2541 1888 2336 1062 2125 
C 1197 1978 1229 1926 1293 1805 
C 2234 2106 2662 2298 3232 2662 
C 3776 2310 4192 2138 5152 1856 
C 5229 2016 5274 2093 5363 2202 
C 4480 2400 4051 2560 3539 2874 
C 3949 3200 4192 3437 4474 3789 
C 4538 3866 4538 3872 4582 3917 
C 4595 3923 4595 3930 4608 3942 
L 4410 4192 
z
M 4077 3859 
C 3789 3494 3635 3347 3245 3066 
C 2899 3309 2778 3418 2464 3763 
C 2483 3782 2496 3802 2509 3827 
C 2522 3846 2528 3846 2534 3859 
L 4077 3859 
z
M 4582 838 
C 3539 1152 2886 1293 1875 1434 
L 1702 1120 
C 2797 979 3482 826 4448 506 
L 4582 838 
z
M 4147 1728 
C 3603 1939 3309 2035 2656 2208 
L 2483 1907 
C 3168 1734 3462 1638 4013 1408 
L 4147 1728 
z
M 954 -461 
L 954 -134 
L 5446 -134 
L 5446 -461 
L 5888 -461 
C 5856 -250 5850 -64 5850 301 
L 5850 4314 
C 5850 4621 5862 4832 5888 5101 
C 5651 5075 5491 5069 5126 5069 
L 1293 5069 
C 922 5069 755 5075 512 5101 
C 544 4813 550 4621 550 4314 
L 550 307 
C 550 -122 544 -256 512 -461 
L 954 -461 
z
M 954 4717 
L 5446 4717 
L 5446 218 
L 954 218 
L 954 4717 
z
" transform="scale(0.015625)"/>
      <path id="HiraginoSansGB-W3-32" d="M 3027 38 
C 3347 38 3558 26 3814 0 
L 3814 538 
C 3571 506 3354 493 3034 493 
L 992 493 
C 1069 800 1158 973 1357 1235 
C 1568 1504 1773 1683 2278 2022 
C 3008 2509 3174 2630 3366 2848 
C 3616 3123 3744 3430 3744 3757 
C 3744 4512 3123 4998 2157 4998 
C 1594 4998 1158 4832 870 4506 
C 659 4269 563 4045 467 3584 
L 1005 3494 
C 1050 3814 1107 3968 1229 4141 
C 1421 4416 1734 4557 2157 4557 
C 2810 4557 3219 4243 3219 3757 
C 3219 3366 3008 3085 2374 2656 
C 1632 2150 1619 2144 1395 1952 
C 992 1606 723 1254 563 851 
C 467 608 448 512 378 6 
C 582 32 678 38 1082 38 
L 3027 38 
z
" transform="scale(0.015625)"/>
      <path id="HiraginoSansGB-W3-2d" d="M 179 1632 
C 358 1658 506 1664 762 1664 
L 1523 1664 
C 1792 1664 1933 1658 2112 1632 
L 2112 2170 
C 1933 2144 1798 2138 1523 2138 
L 762 2138 
C 493 2138 358 2144 179 2170 
L 179 1632 
z
" transform="scale(0.015625)"/>
      <path id="HiraginoSansGB-W3-31" d="M 1030 4429 
C 1216 4454 1382 4467 1587 4467 
L 1933 4467 
L 1933 762 
C 1933 467 1920 262 1882 38 
L 2490 38 
C 2451 275 2438 461 2438 762 
L 2438 3872 
C 2438 4218 2458 4544 2496 4934 
C 2285 4909 2182 4902 1965 4902 
L 1562 4902 
C 1318 4902 1197 4909 1030 4934 
L 1030 4429 
z
" transform="scale(0.015625)"/>
      <path id="HiraginoSansGB-W3-20" transform="scale(0.015625)"/>
      <path id="HiraginoSansGB-W3-6587" d="M 1542 3853 
C 1734 3238 1875 2918 2138 2477 
C 2362 2093 2592 1779 2912 1427 
C 2176 755 1312 294 256 6 
C 378 -122 448 -218 525 -390 
C 1568 -64 2426 422 3200 1139 
C 3910 454 4755 -32 5862 -397 
C 5939 -218 6016 -102 6144 26 
C 5504 198 5146 339 4659 608 
C 4211 851 3859 1101 3494 1434 
C 3885 1850 4186 2285 4435 2803 
C 4608 3149 4640 3238 4826 3853 
L 5338 3853 
C 5690 3853 5882 3840 6061 3814 
L 6061 4269 
C 5862 4237 5645 4224 5331 4224 
L 3277 4224 
L 3552 4397 
C 3277 4864 3277 4864 2912 5363 
L 2579 5171 
C 2822 4858 2822 4858 3181 4224 
L 1075 4224 
C 774 4224 557 4237 358 4269 
L 358 3814 
C 550 3840 749 3853 1069 3853 
L 1542 3853 
z
M 4358 3853 
C 4230 3392 4173 3251 4026 2938 
C 3802 2477 3546 2093 3206 1715 
C 2931 2003 2720 2285 2509 2630 
C 2259 3040 2170 3258 1984 3853 
L 4358 3853 
z
" transform="scale(0.015625)"/>
      <path id="HiraginoSansGB-W3-672c" d="M 2938 4186 
L 1146 4186 
C 864 4186 678 4198 442 4230 
L 442 3763 
C 678 3789 896 3802 1146 3802 
L 2778 3802 
C 2528 3296 2208 2829 1734 2285 
C 1248 1709 787 1318 237 986 
C 390 845 442 781 538 608 
C 1005 934 1350 1242 1754 1683 
C 2330 2310 2669 2835 2963 3533 
C 2944 3187 2938 2944 2938 2707 
L 2938 1254 
L 2310 1254 
C 1984 1254 1843 1261 1677 1286 
L 1677 838 
C 1869 870 2022 877 2323 877 
L 2938 877 
L 2938 275 
C 2938 -19 2925 -243 2893 -467 
L 3398 -467 
C 3366 -262 3354 -32 3354 269 
L 3354 877 
L 4038 877 
C 4326 877 4480 870 4672 838 
L 4672 1286 
C 4506 1261 4365 1254 4051 1254 
L 3354 1254 
L 3354 2707 
C 3354 2918 3347 3155 3328 3539 
C 3635 2848 3994 2304 4525 1741 
C 4941 1299 5338 966 5856 621 
C 5946 794 6016 890 6150 1037 
C 5574 1350 5120 1709 4634 2234 
C 4230 2662 3827 3232 3514 3802 
L 5242 3802 
C 5498 3802 5690 3789 5958 3763 
L 5958 4230 
C 5773 4198 5562 4186 5242 4186 
L 3354 4186 
L 3354 4736 
C 3354 4934 3366 5120 3398 5312 
L 2893 5312 
C 2925 5094 2938 4941 2938 4730 
L 2938 4186 
z
" transform="scale(0.015625)"/>
      <path id="HiraginoSansGB-W3-68b3" d="M 1536 2931 
C 1811 2541 1875 2445 2022 2176 
L 2298 2413 
C 2099 2707 1888 2976 1536 3373 
L 1536 3757 
L 1690 3757 
C 1837 3757 1958 3750 2093 3738 
L 2093 4128 
C 1958 4109 1869 4102 1683 4102 
L 1536 4102 
L 1536 4698 
C 1536 5005 1549 5197 1568 5350 
L 1114 5350 
C 1139 5197 1146 5056 1146 4691 
L 1146 4102 
L 813 4102 
C 614 4102 486 4109 371 4128 
L 371 3731 
C 486 3750 621 3757 813 3757 
L 1101 3757 
C 1030 3418 960 3168 832 2803 
C 640 2246 467 1901 160 1466 
C 288 1331 320 1293 422 1120 
C 781 1696 992 2227 1190 3046 
C 1165 2707 1152 2317 1152 2061 
L 1152 256 
C 1152 -90 1139 -294 1107 -486 
L 1574 -486 
C 1549 -314 1536 -90 1536 256 
L 1536 2931 
z
M 2490 2797 
C 2810 2829 2810 2829 3110 2848 
C 3712 2886 3814 2893 4275 2938 
C 4717 2976 4890 2995 5306 3046 
C 5472 2829 5510 2771 5670 2522 
L 6010 2758 
C 5619 3290 5299 3642 4838 4070 
L 4525 3878 
C 4762 3667 4819 3610 5050 3354 
C 4864 3328 4595 3302 4198 3277 
C 3808 3251 3808 3251 3578 3232 
C 3520 3226 3366 3213 3123 3194 
C 3526 3674 3526 3674 3930 4307 
L 5376 4307 
C 5658 4307 5830 4301 5997 4275 
L 5997 4698 
C 5805 4672 5626 4659 5370 4659 
L 4371 4659 
C 4205 4966 4096 5133 3917 5376 
L 3616 5178 
C 3750 4998 3814 4896 3955 4659 
L 2880 4659 
C 2618 4659 2445 4672 2272 4698 
L 2272 4275 
C 2445 4301 2618 4307 2886 4307 
L 3488 4307 
C 3296 3949 3008 3552 2720 3258 
C 2650 3213 2624 3200 2502 3187 
C 2483 3187 2451 3181 2419 3174 
L 2490 2797 
z
M 2669 2515 
C 2694 2342 2701 2234 2701 2035 
C 2701 1421 2605 960 2406 576 
C 2234 262 2067 77 1734 -154 
C 1888 -243 1952 -307 2074 -454 
C 2413 -179 2579 19 2746 358 
C 2976 813 3072 1280 3091 2029 
C 3098 2310 3104 2381 3123 2515 
L 2669 2515 
z
M 4122 -230 
C 4102 -58 4090 128 4090 358 
L 4090 1894 
C 4090 2125 4096 2272 4122 2438 
L 3674 2438 
C 3699 2272 3712 2118 3712 1894 
L 3712 358 
C 3712 128 3699 -64 3674 -230 
L 4122 -230 
z
M 5862 845 
C 5862 410 5837 141 5786 64 
C 5754 13 5651 -13 5466 -13 
C 5203 -13 5178 6 5178 179 
L 5178 1888 
C 5178 2189 5184 2355 5210 2509 
L 4762 2509 
C 4787 2349 4794 2176 4794 1882 
L 4794 64 
C 4794 -314 4896 -384 5446 -384 
C 6112 -384 6182 -282 6234 717 
C 6086 755 5997 787 5862 877 
L 5862 845 
z
" transform="scale(0.015625)"/>
      <path id="HiraginoSansGB-W3-7406" d="M 1542 4602 
L 1856 4602 
C 2061 4602 2182 4595 2349 4576 
L 2349 4998 
C 2195 4966 2067 4960 1824 4960 
L 851 4960 
C 602 4960 467 4966 314 4998 
L 314 4570 
C 486 4595 563 4602 819 4602 
L 1152 4602 
L 1152 3098 
L 819 3098 
C 627 3098 531 3104 390 3130 
L 390 2720 
C 531 2746 640 2752 813 2752 
L 1152 2752 
L 1152 966 
C 800 832 506 736 269 691 
L 397 243 
C 480 288 525 307 704 371 
C 1459 666 1728 787 2317 1075 
L 2291 1478 
C 1978 1318 1952 1306 1542 1126 
L 1542 2752 
L 1798 2752 
C 1958 2752 2080 2746 2227 2726 
L 2227 3130 
C 2080 3104 1984 3098 1798 3098 
L 1542 3098 
L 1542 4602 
z
M 4352 2163 
L 5082 2163 
C 5453 2163 5619 2157 5850 2138 
C 5830 2304 5824 2541 5824 2957 
L 5824 4243 
C 5824 4621 5830 4870 5850 5050 
C 5670 5024 5478 5018 5030 5018 
L 3347 5018 
C 2912 5018 2714 5024 2522 5050 
C 2541 4851 2554 4640 2554 4237 
L 2554 2874 
C 2547 2470 2547 2470 2541 2368 
C 2541 2317 2541 2253 2528 2138 
C 2707 2157 2918 2163 3322 2163 
L 3974 2163 
L 3974 1427 
L 3130 1427 
C 2810 1427 2675 1434 2515 1459 
L 2515 1037 
C 2682 1062 2822 1069 3130 1069 
L 3974 1069 
L 3974 128 
L 2643 128 
C 2336 128 2202 134 2035 160 
L 2035 -262 
C 2214 -237 2362 -230 2669 -230 
L 5530 -230 
C 5837 -230 5984 -237 6170 -262 
L 6170 160 
C 5997 134 5850 128 5542 128 
L 4352 128 
L 4352 1069 
L 5299 1069 
C 5594 1069 5747 1062 5926 1037 
L 5926 1459 
C 5754 1434 5613 1427 5299 1427 
L 4352 1427 
L 4352 2163 
z
M 3974 3757 
L 2938 3757 
L 2938 4666 
L 3974 4666 
L 3974 3757 
z
M 4352 3757 
L 4352 4666 
L 5434 4666 
L 5434 3757 
L 4352 3757 
z
M 3974 2515 
L 2938 2515 
L 2938 3418 
L 3974 3418 
L 3974 2515 
z
M 4352 2515 
L 4352 3418 
L 5434 3418 
L 5434 2515 
L 4352 2515 
z
" transform="scale(0.015625)"/>
      <path id="HiraginoSansGB-W3-6d41" d="M 2176 2861 
C 2464 2886 2464 2886 2765 2912 
C 3123 2931 3123 2931 3981 3002 
C 4653 3053 4877 3072 5210 3123 
C 5350 2963 5421 2867 5619 2592 
L 5958 2835 
C 5523 3366 5171 3725 4704 4109 
L 4397 3910 
C 4659 3693 4749 3610 4922 3437 
C 4256 3366 4166 3360 3782 3328 
C 3053 3277 3053 3277 2797 3258 
C 3136 3565 3334 3808 3699 4339 
L 5344 4339 
C 5619 4339 5805 4326 5965 4307 
L 5965 4723 
C 5798 4698 5632 4691 5338 4691 
L 4192 4691 
C 3974 5062 3942 5114 3763 5357 
L 3437 5165 
C 3565 4998 3629 4896 3750 4691 
L 2554 4691 
C 2259 4691 2099 4698 1946 4723 
L 1946 4307 
C 2112 4326 2285 4339 2554 4339 
L 3232 4339 
C 2906 3853 2822 3750 2515 3443 
C 2451 3379 2445 3373 2387 3315 
C 2310 3270 2266 3258 2112 3238 
L 2176 2861 
z
M 557 4986 
C 986 4685 1229 4448 1555 4045 
L 1824 4365 
C 1498 4730 1242 4960 826 5267 
L 557 4986 
z
M 256 3424 
C 730 3142 973 2944 1363 2541 
L 1606 2886 
C 1184 3277 934 3469 499 3725 
L 256 3424 
z
M 1338 1894 
C 1011 973 678 333 339 6 
L 717 -326 
C 755 -262 774 -224 800 -179 
C 1248 589 1363 838 1677 1645 
L 1338 1894 
z
M 3930 -166 
C 3910 -13 3898 173 3898 422 
L 3898 1965 
C 3898 2182 3904 2330 3930 2509 
L 3462 2509 
C 3488 2362 3501 2189 3501 1965 
L 3501 429 
C 3501 186 3488 6 3462 -166 
L 3930 -166 
z
M 5075 1958 
C 5075 2278 5082 2426 5107 2586 
L 4646 2586 
C 4672 2419 4678 2266 4678 1958 
L 4678 122 
C 4678 -224 4794 -301 5331 -301 
C 6080 -301 6150 -218 6214 794 
C 6067 832 5971 877 5843 960 
C 5837 563 5805 275 5760 173 
C 5722 83 5632 58 5350 58 
C 5101 58 5075 77 5075 243 
L 5075 1958 
z
M 2374 2586 
C 2406 2413 2413 2298 2413 2093 
C 2413 992 2099 390 1293 -83 
C 1446 -179 1510 -237 1626 -390 
C 1978 -147 2157 26 2342 301 
C 2656 774 2784 1242 2803 2022 
C 2816 2400 2816 2438 2842 2586 
L 2374 2586 
z
" transform="scale(0.015625)"/>
      <path id="HiraginoSansGB-W3-7a0b" d="M 1306 3674 
L 819 3674 
C 582 3674 474 3680 320 3706 
L 320 3290 
C 480 3315 589 3322 806 3322 
L 1242 3322 
C 1242 3309 1242 3309 1229 3277 
C 1171 3034 992 2592 826 2266 
C 614 1856 397 1549 134 1280 
C 230 1178 301 1075 371 928 
C 858 1504 1152 2074 1338 2784 
C 1325 2534 1306 1933 1306 1786 
L 1306 237 
C 1306 -90 1293 -314 1267 -493 
L 1734 -493 
C 1709 -320 1696 -115 1696 243 
L 1696 2586 
C 1894 2330 2067 2080 2240 1792 
L 2522 2061 
C 2298 2387 2080 2643 1696 3040 
L 1696 3322 
L 2048 3322 
C 2227 3322 2349 3315 2477 3296 
L 2477 3699 
C 2368 3680 2246 3674 2054 3674 
L 1696 3674 
L 1696 4704 
C 1869 4762 2138 4858 2496 5005 
L 2240 5344 
C 1939 5114 1261 4909 358 4781 
C 442 4666 486 4570 538 4429 
C 992 4518 1107 4550 1306 4602 
L 1306 3674 
z
M 3955 2138 
L 3955 1376 
L 3238 1376 
C 2918 1376 2739 1382 2579 1408 
L 2579 986 
C 2771 1011 2931 1018 3238 1018 
L 3955 1018 
L 3955 141 
L 2861 141 
C 2522 141 2330 147 2163 173 
L 2163 -262 
C 2381 -237 2573 -224 2861 -224 
L 5350 -224 
C 5638 -224 5830 -237 6048 -262 
L 6048 179 
C 5850 154 5651 141 5350 141 
L 4352 141 
L 4352 1018 
L 5126 1018 
C 5427 1018 5619 1011 5792 986 
L 5792 1408 
C 5626 1382 5446 1376 5126 1376 
L 4352 1376 
L 4352 2138 
L 5248 2138 
C 5536 2138 5722 2125 5933 2099 
L 5933 2534 
C 5734 2509 5536 2496 5248 2496 
L 3194 2496 
C 2893 2496 2726 2502 2560 2528 
L 2560 2106 
C 2746 2131 2899 2138 3181 2138 
L 3955 2138 
z
M 2771 3558 
C 2771 3322 2765 3187 2746 3034 
C 2925 3046 3091 3053 3328 3053 
L 5107 3053 
C 5363 3053 5517 3046 5696 3034 
C 5677 3155 5670 3315 5670 3571 
L 5670 4499 
C 5670 4723 5677 4877 5696 5018 
C 5523 4998 5389 4992 5126 4992 
L 3322 4992 
C 3066 4992 2925 4998 2746 5018 
C 2765 4870 2771 4704 2771 4499 
L 2771 3558 
z
M 3168 4634 
L 5274 4634 
L 5274 3405 
L 3168 3405 
L 3168 4634 
z
" transform="scale(0.015625)"/>
     </defs>
     <use xlink:href="#HiraginoSansGB-W3-56fe"/>
     <use xlink:href="#HiraginoSansGB-W3-32" transform="translate(99.999985 0)"/>
     <use xlink:href="#HiraginoSansGB-W3-2d" transform="translate(165.699982 0)"/>
     <use xlink:href="#HiraginoSansGB-W3-31" transform="translate(201.499969 0)"/>
     <use xlink:href="#HiraginoSansGB-W3-20" transform="translate(267.199966 0)"/>
     <use xlink:href="#HiraginoSansGB-W3-6587" transform="translate(300.499954 0)"/>
     <use xlink:href="#HiraginoSansGB-W3-672c" transform="translate(400.499939 0)"/>
     <use xlink:href="#HiraginoSansGB-W3-68b3" transform="translate(500.499924 0)"/>
     <use xlink:href="#HiraginoSansGB-W3-7406" transform="translate(600.499908 0)"/>
     <use xlink:href="#HiraginoSansGB-W3-6d41" transform="translate(700.499893 0)"/>
     <use xlink:href="#HiraginoSansGB-W3-7a0b" transform="translate(800.499878 0)"/>
     <use xlink:href="#HiraginoSansGB-W3-56fe" transform="translate(900.499863 0)"/>
    </g>
   </g>
   <g id="text_2">
    <!-- 对应论文第2.3节，展示文本梳理的核心处理步骤。 -->
    <g style="fill: #6f5a3f" transform="translate(43.47 35.256184) scale(0.105 -0.105)">
     <defs>
      <path id="HiraginoSansGB-W3-5bf9" d="M 5267 3853 
L 5267 4493 
C 5267 4800 5280 5024 5306 5248 
L 4819 5248 
C 4851 5043 4864 4806 4864 4499 
L 4864 3853 
L 3661 3853 
C 3398 3853 3168 3866 2995 3891 
L 2995 3450 
C 3155 3475 3405 3488 3667 3488 
L 4864 3488 
L 4864 186 
C 4864 38 4813 13 4544 13 
C 4301 13 4090 32 3808 77 
C 3878 -96 3891 -147 3917 -339 
C 4179 -358 4352 -365 4550 -365 
C 5146 -365 5267 -282 5267 128 
L 5267 3488 
L 5510 3488 
C 5741 3488 5933 3475 6112 3456 
L 6112 3891 
C 5946 3866 5760 3853 5504 3853 
L 5267 3853 
z
M 3091 973 
C 2822 1363 2637 1619 2298 2074 
C 2554 2733 2733 3475 2829 4275 
C 2861 4531 2861 4538 2893 4723 
C 2733 4710 2598 4704 2387 4704 
L 947 4704 
C 704 4704 550 4710 390 4736 
L 390 4288 
C 550 4314 704 4320 941 4320 
L 2419 4320 
C 2304 3475 2195 2976 2003 2451 
C 1664 2861 1229 3341 883 3693 
L 582 3437 
C 1210 2803 1485 2496 1837 2029 
C 1741 1811 1594 1530 1459 1325 
C 1126 787 800 448 218 6 
C 371 -134 384 -154 499 -352 
C 1248 218 1670 742 2118 1651 
C 2330 1357 2515 1082 2758 678 
L 3091 973 
z
M 4314 1498 
C 4064 2042 3878 2355 3456 2950 
L 3136 2746 
C 3514 2227 3686 1914 3955 1286 
L 4314 1498 
z
" transform="scale(0.015625)"/>
      <path id="HiraginoSansGB-W3-5e94" d="M 3738 4557 
C 3475 5056 3475 5056 3258 5350 
L 2893 5158 
C 3072 4915 3098 4870 3270 4557 
L 1555 4557 
C 1267 4557 1120 4563 915 4589 
C 934 4371 941 4205 941 3808 
C 941 2509 864 1594 698 992 
C 595 627 474 346 237 -45 
C 378 -134 390 -147 589 -352 
C 902 192 1043 576 1158 1152 
C 1299 1875 1350 2643 1363 4179 
L 5338 4179 
C 5722 4179 5856 4173 6029 4147 
L 6029 4595 
C 5824 4563 5651 4557 5338 4557 
L 3738 4557 
z
M 1722 3091 
C 2035 2323 2176 1894 2438 883 
L 2842 1043 
C 2566 2061 2432 2458 2099 3245 
L 1722 3091 
z
M 3072 3693 
C 3302 2976 3405 2534 3571 1491 
L 3987 1606 
C 3821 2541 3706 3046 3475 3808 
L 3072 3693 
z
M 1382 -173 
C 1562 -141 1792 -128 2093 -128 
L 5254 -128 
C 5677 -128 5907 -141 6093 -173 
L 6093 307 
C 5882 275 5600 262 5254 262 
L 4486 262 
C 4749 774 4890 1082 5126 1702 
C 5389 2381 5498 2720 5683 3456 
L 5235 3610 
C 5101 2886 4992 2496 4749 1830 
C 4512 1203 4346 838 4032 262 
L 2093 262 
C 1798 262 1562 275 1382 307 
L 1382 -173 
z
" transform="scale(0.015625)"/>
      <path id="HiraginoSansGB-W3-8bba" d="M 4384 5210 
L 3962 5350 
C 3770 4819 3526 4397 3168 3968 
C 2803 3533 2566 3328 2093 3027 
C 2246 2893 2310 2816 2368 2682 
C 2867 3040 3110 3270 3514 3776 
C 3782 4115 3974 4403 4128 4717 
C 4474 4237 4653 3994 4672 3974 
C 5069 3482 5459 3149 6054 2816 
C 6093 2880 6093 2880 6150 3008 
C 6176 3059 6221 3110 6298 3200 
C 5696 3501 5376 3738 5024 4147 
C 4800 4397 4557 4742 4333 5101 
L 4384 5210 
z
M 1293 448 
C 1274 301 1242 243 1126 173 
L 1357 -237 
C 1811 32 2330 358 2605 550 
L 2573 1005 
C 2221 768 1926 582 1709 467 
L 1709 2605 
C 1709 2925 1715 3078 1741 3283 
C 1587 3264 1434 3251 1248 3251 
L 806 3251 
C 570 3251 474 3258 314 3283 
L 314 2835 
C 474 2861 570 2867 781 2867 
L 1293 2867 
L 1293 448 
z
M 755 5030 
C 1203 4698 1427 4486 1837 4019 
L 2138 4352 
C 1728 4781 1523 4960 1056 5318 
L 755 5030 
z
M 3475 1222 
C 4058 1472 4608 1811 5293 2336 
C 5382 2400 5382 2400 5510 2490 
L 5197 2822 
C 5082 2675 4973 2573 4717 2381 
C 4282 2048 3725 1702 3475 1613 
L 3475 2477 
C 3475 2822 3482 2957 3507 3117 
L 3059 3117 
C 3085 2970 3091 2790 3091 2464 
L 3091 243 
C 3091 -6 3142 -122 3283 -186 
C 3450 -256 3782 -294 4288 -294 
C 4582 -294 4941 -275 5152 -256 
C 5370 -230 5491 -186 5606 -102 
C 5773 32 5856 333 5914 1018 
C 5754 1056 5645 1107 5510 1190 
C 5504 749 5472 480 5414 326 
C 5338 141 5088 77 4442 77 
C 4026 77 3699 96 3584 134 
C 3507 160 3475 218 3475 339 
L 3475 1222 
z
" transform="scale(0.015625)"/>
      <path id="HiraginoSansGB-W3-7b2c" d="M 3014 205 
L 3014 -90 
C 3014 -211 3002 -339 2976 -499 
L 3450 -499 
C 3418 -307 3398 -83 3398 205 
L 3398 1338 
L 5363 1338 
C 5331 864 5293 595 5242 467 
C 5197 352 5126 320 4915 320 
C 4698 320 4416 346 4134 397 
C 4186 256 4205 166 4237 -6 
C 4518 -32 4704 -38 4947 -38 
C 5594 -38 5638 45 5766 1446 
C 5779 1581 5779 1613 5798 1702 
C 5664 1683 5523 1677 5274 1677 
L 3398 1677 
L 3398 2336 
L 4864 2336 
C 5126 2336 5293 2330 5459 2317 
C 5440 2445 5434 2560 5434 2758 
L 5434 3283 
C 5434 3469 5440 3571 5459 3686 
C 5299 3667 5165 3661 4864 3661 
L 1453 3661 
C 1139 3661 973 3667 832 3693 
L 832 3290 
C 1024 3315 1210 3322 1453 3322 
L 3008 3322 
L 3008 2669 
L 1658 2669 
C 1299 2669 1222 2675 1062 2701 
C 973 2182 966 2138 909 1939 
C 781 1510 774 1485 685 1312 
C 979 1338 979 1338 1242 1338 
L 2707 1338 
C 2502 1107 2189 864 1824 640 
C 1344 346 986 192 301 0 
C 416 -134 474 -211 550 -365 
C 1254 -109 1542 26 2042 346 
C 2381 563 2771 890 3014 1165 
L 3014 205 
z
M 3008 1670 
L 1229 1670 
C 1312 1939 1338 2029 1421 2336 
L 3008 2336 
L 3008 1670 
z
M 3392 3322 
L 5043 3322 
L 5043 2669 
L 3392 2669 
L 3392 3322 
z
M 1754 4474 
C 1888 4269 1990 4064 2118 3763 
L 2470 3904 
C 2362 4122 2278 4262 2131 4474 
L 2566 4474 
C 2810 4474 2989 4467 3149 4448 
L 3149 4858 
C 2995 4832 2816 4819 2515 4819 
L 1530 4819 
C 1690 5088 1690 5088 1779 5248 
L 1370 5376 
C 1139 4781 806 4333 301 3949 
C 403 3878 493 3789 582 3667 
C 922 3968 1101 4173 1312 4474 
L 1754 4474 
z
M 3917 4819 
C 4032 5037 4058 5088 4134 5261 
L 3744 5376 
C 3552 4787 3322 4429 2861 4006 
C 2995 3930 3059 3878 3162 3770 
C 3405 4019 3526 4173 3725 4474 
L 4282 4474 
C 4474 4186 4544 4070 4685 3770 
L 5043 3917 
C 4934 4115 4787 4333 4685 4474 
L 5389 4474 
C 5664 4474 5856 4467 6061 4442 
L 6061 4858 
C 5862 4832 5683 4819 5382 4819 
L 3917 4819 
z
" transform="scale(0.015625)"/>
      <path id="HiraginoSansGB-W3-2e" d="M 448 672 
L 448 38 
L 1082 38 
L 1082 672 
L 448 672 
z
" transform="scale(0.015625)"/>
      <path id="HiraginoSansGB-W3-33" d="M 288 1088 
C 403 762 480 621 614 467 
C 922 122 1402 -58 2048 -58 
C 3117 -58 3782 480 3782 1344 
C 3782 1754 3635 2093 3354 2310 
C 3136 2477 2938 2547 2566 2586 
C 2861 2643 3002 2694 3168 2816 
C 3450 3014 3616 3360 3616 3750 
C 3616 4518 3027 5005 2099 5005 
C 1542 5005 1107 4845 826 4538 
C 666 4371 589 4224 480 3898 
L 1011 3782 
C 1082 4019 1126 4122 1216 4237 
C 1395 4467 1677 4576 2067 4576 
C 2714 4576 3098 4256 3098 3706 
C 3098 3475 3002 3238 2842 3085 
C 2643 2886 2330 2790 1907 2790 
C 1734 2790 1581 2803 1434 2829 
L 1434 2323 
C 1606 2342 1766 2355 1946 2355 
C 2797 2355 3251 2010 3251 1376 
C 3251 768 2784 384 2042 384 
C 1715 384 1434 461 1216 614 
C 1018 755 928 890 826 1222 
L 288 1088 
z
" transform="scale(0.015625)"/>
      <path id="HiraginoSansGB-W3-8282" d="M 2374 4621 
L 2374 4826 
C 2374 4986 2387 5139 2413 5280 
L 1939 5280 
C 1965 5133 1978 4986 1978 4826 
L 1978 4621 
L 1088 4621 
C 755 4621 557 4634 371 4659 
L 371 4230 
C 570 4256 762 4262 1088 4262 
L 1978 4262 
L 1978 4019 
C 1978 3898 1971 3763 1946 3603 
L 2394 3603 
C 2374 3725 2374 3782 2374 4026 
L 2374 4262 
L 3974 4262 
L 3974 4006 
C 3974 3776 3974 3718 3955 3584 
L 4403 3584 
C 4384 3731 4371 3872 4371 4006 
L 4371 4262 
L 5293 4262 
C 5613 4262 5811 4256 6010 4230 
L 6010 4659 
C 5830 4634 5626 4621 5293 4621 
L 4371 4621 
L 4371 4813 
C 4371 4973 4384 5133 4410 5267 
L 3942 5267 
C 3962 5114 3974 4960 3974 4813 
L 3974 4621 
L 2374 4621 
z
M 2778 2803 
L 5056 2803 
L 5056 909 
C 5056 762 4973 730 4608 730 
C 4358 730 3987 762 3642 813 
C 3718 570 3731 531 3750 371 
C 4026 358 4320 346 4486 346 
C 4858 346 5126 378 5254 435 
C 5376 486 5466 666 5466 864 
L 5466 2669 
C 5466 2893 5472 3040 5491 3200 
C 5306 3181 5165 3174 4902 3174 
L 1344 3174 
C 1056 3174 845 3187 608 3213 
L 608 2765 
C 851 2790 1094 2803 1344 2803 
L 2355 2803 
L 2355 173 
C 2355 -70 2342 -282 2310 -493 
L 2829 -493 
C 2790 -294 2778 -102 2778 173 
L 2778 2803 
z
" transform="scale(0.015625)"/>
      <path id="HiraginoSansGB-W3-ff0c" d="M 1370 691 
L 730 691 
L 730 58 
L 1101 58 
C 1107 -326 1050 -435 794 -550 
L 966 -762 
C 1286 -576 1370 -416 1370 58 
L 1370 691 
z
" transform="scale(0.015625)"/>
      <path id="HiraginoSansGB-W3-5c55" d="M 2003 1587 
L 2003 179 
C 1984 32 1946 -26 1818 -83 
L 1978 -480 
C 2144 -429 2234 -403 2432 -346 
C 3213 -128 3213 -128 3558 -13 
L 3603 384 
C 3232 256 2854 147 2400 38 
L 2400 1587 
L 3117 1587 
C 3322 1146 3539 858 3904 550 
C 4448 102 4960 -154 5862 -416 
C 5933 -250 5997 -154 6118 -26 
C 5421 115 4954 294 4493 589 
C 4730 742 4845 832 5421 1306 
L 5062 1542 
C 4813 1254 4538 1018 4192 800 
C 3834 1088 3699 1248 3533 1587 
L 5261 1587 
C 5510 1587 5760 1574 5946 1549 
L 5946 1971 
C 5779 1946 5568 1933 5254 1933 
L 4506 1933 
L 4506 2688 
L 5050 2688 
C 5318 2688 5510 2682 5658 2662 
L 5658 3059 
C 5504 3034 5376 3027 5056 3027 
L 4506 3027 
L 4506 3110 
C 4506 3328 4512 3443 4538 3565 
L 4083 3565 
C 4102 3469 4115 3283 4115 3110 
L 4115 3027 
L 2886 3027 
L 2886 3110 
C 2886 3322 2893 3437 2918 3565 
L 2470 3565 
C 2490 3456 2502 3283 2502 3110 
L 2502 3027 
L 2112 3027 
C 1824 3027 1677 3034 1530 3059 
L 1530 2662 
C 1709 2682 1862 2688 2106 2688 
L 2502 2688 
L 2502 1933 
L 1235 1933 
C 1286 2426 1306 2880 1318 3706 
L 5050 3706 
C 5261 3706 5427 3699 5690 3686 
C 5677 3808 5670 3949 5670 4154 
L 5670 4602 
C 5670 4800 5677 4941 5690 5094 
C 5517 5075 5357 5069 5011 5069 
L 1677 5069 
C 1325 5069 1120 5075 902 5094 
C 928 4819 934 4646 934 4166 
C 934 2912 851 1779 723 1158 
C 595 563 474 269 166 -186 
C 307 -282 397 -371 506 -506 
C 896 122 1088 704 1197 1587 
L 2003 1587 
z
M 4115 1933 
L 2886 1933 
L 2886 2688 
L 4115 2688 
L 4115 1933 
z
M 1325 4045 
L 1325 4717 
L 5280 4717 
L 5280 4045 
L 1325 4045 
z
" transform="scale(0.015625)"/>
      <path id="HiraginoSansGB-W3-793a" d="M 3046 3053 
L 3046 230 
C 3046 90 3002 70 2739 70 
C 2445 70 2176 96 1824 154 
C 1888 -19 1914 -102 1933 -288 
C 2202 -314 2509 -326 2784 -326 
C 3347 -326 3475 -230 3475 186 
L 3475 3053 
L 5293 3053 
C 5562 3053 5766 3040 5958 3014 
L 5958 3488 
C 5773 3462 5574 3450 5286 3450 
L 1146 3450 
C 845 3450 659 3462 474 3488 
L 474 3014 
C 672 3040 864 3053 1139 3053 
L 3046 3053 
z
M 5318 4941 
C 5133 4915 4928 4902 4653 4902 
L 1734 4902 
C 1440 4902 1248 4915 1062 4941 
L 1062 4474 
C 1267 4499 1485 4512 1728 4512 
L 4646 4512 
C 4909 4512 5120 4499 5318 4474 
L 5318 4941 
z
M 1696 2496 
C 1466 1696 954 902 365 416 
C 531 314 595 256 730 122 
C 1325 685 1766 1395 2106 2336 
L 1696 2496 
z
M 5901 320 
C 5760 685 5728 742 5421 1325 
C 5184 1779 5101 1920 4736 2502 
L 4378 2330 
C 4928 1402 5210 845 5485 122 
L 5901 320 
z
" transform="scale(0.015625)"/>
      <path id="HiraginoSansGB-W3-7684" d="M 1651 4333 
C 1747 4544 1862 4864 1978 5210 
L 1523 5299 
C 1472 4966 1376 4646 1248 4333 
L 1120 4333 
C 800 4333 685 4339 550 4352 
C 570 4192 576 4045 576 3744 
L 576 499 
C 576 122 570 -115 544 -282 
L 973 -282 
L 973 282 
L 2221 282 
L 2221 -128 
L 2643 -128 
C 2624 26 2611 243 2611 531 
L 2611 3789 
C 2611 4019 2618 4186 2630 4352 
C 2573 4346 2387 4339 2067 4333 
L 1651 4333 
z
M 973 3981 
L 2221 3981 
L 2221 2554 
L 973 2554 
L 973 3981 
z
M 973 2202 
L 2221 2202 
L 2221 640 
L 973 640 
L 973 2202 
z
M 3846 4339 
C 3949 4595 4013 4768 4090 4992 
C 4128 5107 4160 5197 4179 5235 
L 3738 5318 
C 3725 5178 3661 4941 3571 4698 
C 3334 4045 3021 3501 2630 3085 
C 2739 3014 2854 2906 2938 2797 
C 3270 3226 3456 3520 3674 3962 
L 5517 3962 
C 5510 3021 5504 2579 5472 2067 
C 5427 1210 5344 595 5235 301 
C 5152 96 5069 38 4832 38 
C 4602 38 4314 70 3923 147 
C 3994 -13 4019 -122 4032 -307 
C 4429 -339 4614 -352 4845 -352 
C 5229 -352 5434 -237 5562 58 
C 5792 570 5875 1427 5933 3962 
C 5939 4198 5939 4250 5958 4365 
C 5830 4346 5651 4339 5395 4339 
L 3846 4339 
z
M 4742 1549 
C 4403 2234 4134 2656 3731 3142 
L 3405 2944 
C 3776 2496 4019 2093 4378 1325 
L 4742 1549 
z
" transform="scale(0.015625)"/>
      <path id="HiraginoSansGB-W3-6838" d="M 1683 2950 
C 1933 2547 2042 2355 2182 2054 
L 2464 2298 
C 2182 2771 2086 2906 1683 3430 
L 1683 3725 
L 1920 3725 
C 2067 3725 2189 3718 2317 3706 
L 2317 4096 
C 2202 4077 2099 4070 1920 4070 
L 1683 4070 
L 1683 4698 
C 1683 5011 1690 5184 1715 5350 
L 1261 5350 
C 1280 5203 1293 5050 1293 4691 
L 1293 4070 
L 858 4070 
C 685 4070 544 4083 416 4102 
L 416 3693 
C 544 3712 698 3725 858 3725 
L 1229 3725 
C 1075 2950 678 2048 250 1510 
C 352 1402 416 1299 506 1133 
C 896 1722 1107 2227 1331 3072 
C 1312 2662 1299 2298 1299 2061 
L 1299 250 
C 1299 -83 1286 -307 1254 -493 
L 1722 -493 
C 1690 -320 1683 -96 1683 250 
L 1683 2950 
z
M 3680 4045 
C 3610 3904 3546 3802 3430 3629 
C 3200 3302 3072 3155 2854 2982 
C 2739 2893 2688 2867 2509 2842 
L 2656 2381 
C 2797 2419 2797 2419 3034 2438 
C 3712 2490 3712 2490 3949 2502 
C 4019 2502 4019 2502 4070 2509 
C 3488 1882 2906 1485 2150 1197 
C 2291 1075 2342 1011 2426 864 
C 2906 1069 3290 1299 3693 1626 
C 4230 2054 4634 2515 5062 3181 
C 5158 3328 5197 3386 5261 3469 
L 4870 3680 
C 4800 3469 4608 3155 4371 2861 
C 4230 2848 4186 2848 3654 2829 
C 3546 2822 3373 2816 3155 2810 
C 3597 3245 3757 3450 4128 4045 
L 5434 4045 
C 5709 4045 5907 4032 6086 4006 
L 6086 4448 
C 5914 4422 5728 4410 5434 4410 
L 4448 4410 
C 4371 4557 4371 4557 4269 4717 
C 3968 5171 3968 5171 3866 5306 
L 3546 5114 
C 3706 4902 3885 4634 4006 4410 
L 3008 4410 
C 2694 4410 2541 4416 2368 4442 
L 2368 4013 
C 2554 4038 2694 4045 3014 4045 
L 3680 4045 
z
M 6086 -102 
C 5587 320 5126 666 4653 960 
C 4986 1267 5312 1645 5613 2067 
C 5741 2240 5766 2272 5818 2342 
L 5453 2573 
C 5261 2170 4877 1690 4378 1229 
C 3693 602 2938 160 2042 -115 
C 2170 -237 2234 -314 2310 -461 
C 3168 -134 3763 198 4365 704 
C 4877 378 5408 -38 5850 -461 
L 6086 -102 
z
" transform="scale(0.015625)"/>
      <path id="HiraginoSansGB-W3-5fc3" d="M 646 538 
C 896 998 986 1210 1126 1664 
C 1293 2182 1370 2509 1491 3213 
L 1062 3328 
C 973 2682 902 2368 730 1850 
C 589 1408 493 1210 237 787 
L 646 538 
z
M 4429 4326 
C 3693 4781 3226 4998 2317 5331 
L 2067 4979 
C 3008 4634 3482 4397 4141 3949 
L 4429 4326 
z
M 6214 954 
C 5862 2003 5626 2528 5114 3386 
L 4736 3187 
C 5018 2720 5139 2496 5325 2054 
C 5523 1600 5626 1306 5798 717 
L 6214 954 
z
M 2483 3360 
C 2483 3597 2496 3763 2528 3962 
L 2010 3962 
C 2042 3712 2054 3558 2054 3354 
L 2054 288 
C 2054 -186 2234 -262 3334 -262 
C 4326 -262 4557 -205 4710 96 
C 4832 333 4890 685 4954 1478 
C 4794 1517 4678 1562 4518 1645 
C 4499 928 4448 518 4346 339 
C 4269 192 4019 141 3398 141 
C 2618 141 2483 173 2483 378 
L 2483 3360 
z
" transform="scale(0.015625)"/>
      <path id="HiraginoSansGB-W3-5904" d="M 4288 3328 
C 4960 2816 5427 2400 5824 1952 
L 6093 2259 
C 5402 2899 5082 3162 4288 3744 
L 4288 4634 
C 4288 4998 4294 5107 4314 5274 
L 3840 5274 
C 3885 4979 3898 4806 3898 4634 
L 3898 1171 
C 3898 922 3885 755 3853 518 
L 4333 518 
C 4301 755 4288 915 4288 1171 
L 4288 3328 
z
M 1626 4397 
C 1632 4416 1632 4422 1632 4435 
C 1638 4467 1651 4506 1658 4550 
C 1709 4800 1709 4806 1715 4845 
C 1747 5056 1766 5165 1811 5306 
L 1376 5338 
C 1382 5306 1382 5293 1382 5254 
C 1382 5050 1312 4621 1216 4230 
C 1018 3424 749 2842 288 2214 
C 410 2125 461 2067 563 1914 
C 787 2246 954 2534 1094 2874 
C 1107 2912 1139 2970 1165 3046 
C 1357 2342 1510 1952 1786 1434 
C 1427 870 934 384 256 -96 
C 435 -262 435 -262 550 -454 
C 883 -192 1120 19 1344 256 
C 1645 576 1837 813 1984 1056 
C 2310 614 2502 416 2829 198 
C 3053 45 3334 -83 3635 -160 
C 3936 -243 4525 -301 5005 -301 
C 5254 -301 5645 -288 6125 -269 
C 6150 -96 6170 -38 6272 173 
C 5728 128 5440 115 5056 115 
C 4083 115 3514 224 3078 493 
C 2790 666 2605 858 2208 1395 
C 2624 2208 2829 2912 2957 3987 
C 2976 4166 2989 4230 3014 4416 
C 2842 4403 2752 4397 2496 4397 
L 1626 4397 
z
M 2554 4045 
C 2438 3046 2323 2573 1990 1773 
C 1658 2496 1530 2880 1395 3526 
C 1434 3648 1446 3686 1472 3802 
C 1498 3904 1510 3936 1536 4045 
L 2554 4045 
z
" transform="scale(0.015625)"/>
      <path id="HiraginoSansGB-W3-6b65" d="M 384 2861 
C 582 2886 781 2899 1075 2899 
L 5389 2899 
C 5658 2899 5856 2886 6042 2861 
L 6042 3309 
C 5862 3283 5670 3270 5389 3270 
L 3501 3270 
L 3501 4154 
L 4934 4154 
C 5222 4154 5363 4147 5536 4122 
L 5536 4550 
C 5363 4525 5197 4512 4934 4512 
L 3501 4512 
L 3501 4762 
C 3501 5018 3507 5165 3539 5338 
L 3066 5338 
C 3091 5165 3104 4998 3104 4742 
L 3104 3270 
L 1901 3270 
L 1901 4243 
C 1901 4486 1907 4621 1939 4819 
L 1472 4819 
C 1498 4640 1510 4474 1510 4243 
L 1510 3270 
L 1075 3270 
C 774 3270 582 3283 384 3309 
L 384 2861 
z
M 3002 2752 
C 3027 2579 3040 2413 3040 2157 
L 3040 1395 
C 3040 1216 3021 966 3002 806 
L 3469 806 
C 3437 1171 3437 1190 3437 1395 
L 3437 2170 
C 3437 2426 3450 2579 3475 2752 
L 3002 2752 
z
M 1779 2458 
C 1562 2048 1402 1818 1146 1587 
C 947 1402 666 1210 365 1037 
C 499 934 576 845 659 723 
C 1306 1152 1754 1613 2125 2240 
L 1779 2458 
z
M 5152 2438 
C 4992 2080 4800 1805 4461 1466 
C 3942 947 3379 582 2669 320 
C 2170 141 1677 51 794 -19 
C 934 -237 947 -256 1011 -435 
C 1530 -371 1798 -320 2118 -250 
C 2835 -83 3469 198 4070 614 
C 4640 1005 4979 1363 5555 2163 
L 5152 2438 
z
" transform="scale(0.015625)"/>
      <path id="HiraginoSansGB-W3-9aa4" d="M 5171 2541 
C 4672 2278 3565 2054 2637 2029 
C 2733 1914 2797 1805 2829 1690 
C 3264 1747 3507 1786 3552 1792 
C 3712 1818 3827 1837 3872 1843 
C 3917 1850 3923 1856 3955 1856 
L 3955 109 
C 3955 -115 3942 -282 3910 -454 
L 4346 -454 
C 4320 -288 4307 -128 4307 109 
L 4307 1011 
C 4307 1216 4301 1344 4282 1491 
C 4467 1126 4730 762 5018 461 
C 5286 179 5536 -19 5939 -275 
C 6029 -90 6067 -26 6195 109 
C 5702 346 5427 550 5050 941 
C 5318 1088 5498 1210 5766 1421 
C 5862 1498 5875 1510 5946 1555 
C 5952 1562 5971 1568 5990 1581 
L 5690 1875 
C 5510 1651 5293 1478 4832 1203 
C 4595 1504 4467 1709 4371 1933 
C 4595 1978 4992 2080 5440 2208 
L 5171 2541 
z
M 2112 4390 
C 2131 4570 2170 4838 2208 5069 
C 2074 5050 1888 5037 1670 5037 
L 1024 5037 
C 736 5037 506 5050 326 5075 
L 326 4627 
C 531 4653 736 4666 1037 4666 
L 1766 4666 
L 1530 2400 
L 915 2400 
L 1043 3706 
C 1075 4064 1082 4083 1114 4256 
L 698 4294 
C 704 4230 704 4198 704 4166 
C 704 4090 691 3853 678 3744 
L 576 2707 
C 538 2291 525 2221 480 2035 
C 653 2048 845 2054 1075 2054 
L 1933 2054 
C 1914 1235 1856 659 1754 282 
C 1696 83 1638 32 1472 32 
C 1344 32 1210 51 928 115 
C 986 -77 986 -96 1005 -314 
C 1190 -339 1331 -352 1491 -352 
C 1773 -352 1907 -288 1997 -122 
C 2150 179 2253 909 2304 1978 
C 2323 2362 2323 2362 2330 2426 
C 2227 2413 2157 2406 1997 2406 
C 1939 2400 1939 2400 1894 2400 
L 2112 4390 
z
M 4128 4774 
C 4211 4768 4262 4768 4339 4755 
L 4339 5126 
C 4205 5101 4077 5094 3808 5094 
L 2931 5094 
C 2656 5094 2522 5101 2368 5126 
L 2368 4755 
C 2464 4768 2534 4774 2630 4781 
L 2630 2950 
C 2490 2931 2432 2925 2368 2925 
C 2349 2925 2336 2925 2298 2925 
L 2374 2560 
C 2451 2592 2835 2682 3142 2739 
C 3315 2771 3315 2771 3802 2886 
L 3802 2861 
C 3802 2701 3789 2560 3770 2432 
L 4160 2432 
C 4134 2573 4128 2714 4128 2957 
L 4128 2970 
L 4435 3046 
L 4435 3347 
C 4288 3302 4224 3283 4128 3258 
L 4128 4774 
z
M 3802 4781 
L 3802 4422 
L 2950 4422 
L 2950 4781 
L 3802 4781 
z
M 3802 4134 
L 3802 3750 
L 2950 3750 
L 2950 4134 
L 3802 4134 
z
M 3802 3462 
L 3802 3174 
C 3366 3072 3354 3072 2950 3002 
L 2950 3462 
L 3802 3462 
z
M 4454 4160 
C 4736 3923 4864 3795 5088 3539 
C 4832 3213 4634 3034 4243 2803 
C 4358 2720 4442 2630 4499 2534 
C 4870 2797 5069 2982 5306 3277 
C 5466 3066 5555 2944 5786 2611 
L 6067 2886 
C 5837 3168 5837 3168 5510 3558 
C 5664 3802 5722 3904 5786 4051 
C 6048 4666 6048 4666 6074 4717 
L 5875 4954 
C 5760 4934 5651 4928 5434 4928 
L 4960 4928 
C 4717 4928 4602 4934 4467 4960 
L 4467 4582 
C 4602 4602 4698 4608 4851 4608 
L 5632 4608 
C 5523 4269 5453 4109 5274 3814 
C 5107 3987 5018 4070 4678 4358 
L 4454 4160 
z
M 3533 1619 
C 3174 1350 2931 1229 2419 1069 
C 2534 960 2579 902 2643 781 
C 3200 1018 3379 1114 3776 1389 
L 3533 1619 
z
M 275 582 
C 416 634 454 646 736 730 
C 1222 877 1440 954 1690 1050 
L 1690 1440 
C 1197 1248 640 1088 288 1037 
C 186 1024 186 1024 154 1018 
L 275 582 
z
M 3590 902 
C 3379 685 3258 589 2970 416 
C 2720 269 2592 205 2266 77 
C 2394 -6 2477 -96 2541 -211 
C 3123 70 3411 262 3846 672 
L 3590 902 
z
" transform="scale(0.015625)"/>
      <path id="HiraginoSansGB-W3-3002" d="M 1440 1504 
C 909 1504 480 1075 480 544 
C 480 13 909 -416 1440 -416 
C 1971 -416 2400 13 2400 544 
C 2400 1075 1971 1504 1440 1504 
z
M 1440 1139 
C 1766 1139 2035 870 2035 544 
C 2035 218 1766 -51 1440 -51 
C 1114 -51 845 218 845 544 
C 845 870 1114 1139 1440 1139 
z
" transform="scale(0.015625)"/>
     </defs>
     <use xlink:href="#HiraginoSansGB-W3-5bf9"/>
     <use xlink:href="#HiraginoSansGB-W3-5e94" transform="translate(99.999985 0)"/>
     <use xlink:href="#HiraginoSansGB-W3-8bba" transform="translate(199.999969 0)"/>
     <use xlink:href="#HiraginoSansGB-W3-6587" transform="translate(299.999954 0)"/>
     <use xlink:href="#HiraginoSansGB-W3-7b2c" transform="translate(399.999939 0)"/>
     <use xlink:href="#HiraginoSansGB-W3-32" transform="translate(499.999924 0)"/>
     <use xlink:href="#HiraginoSansGB-W3-2e" transform="translate(565.699921 0)"/>
     <use xlink:href="#HiraginoSansGB-W3-33" transform="translate(589.699905 0)"/>
     <use xlink:href="#HiraginoSansGB-W3-8282" transform="translate(655.399902 0)"/>
     <use xlink:href="#HiraginoSansGB-W3-ff0c" transform="translate(755.399887 0)"/>
     <use xlink:href="#HiraginoSansGB-W3-5c55" transform="translate(855.399872 0)"/>
     <use xlink:href="#HiraginoSansGB-W3-793a" transform="translate(955.399857 0)"/>
     <use xlink:href="#HiraginoSansGB-W3-6587" transform="translate(1055.399841 0)"/>
     <use xlink:href="#HiraginoSansGB-W3-672c" transform="translate(1155.399826 0)"/>
     <use xlink:href="#HiraginoSansGB-W3-68b3" transform="translate(1255.399811 0)"/>
     <use xlink:href="#HiraginoSansGB-W3-7406" transform="translate(1355.399796 0)"/>
     <use xlink:href="#HiraginoSansGB-W3-7684" transform="translate(1455.39978 0)"/>
     <use xlink:href="#HiraginoSansGB-W3-6838" transform="translate(1555.399765 0)"/>
     <use xlink:href="#HiraginoSansGB-W3-5fc3" transform="translate(1655.39975 0)"/>
     <use xlink:href="#HiraginoSansGB-W3-5904" transform="translate(1755.399734 0)"/>
     <use xlink:href="#HiraginoSansGB-W3-7406" transform="translate(1855.399719 0)"/>
     <use xlink:href="#HiraginoSansGB-W3-6b65" transform="translate(1955.399704 0)"/>
     <use xlink:href="#HiraginoSansGB-W3-9aa4" transform="translate(2055.399689 0)"/>
     <use xlink:href="#HiraginoSansGB-W3-3002" transform="translate(2155.399673 0)"/>
    </g>
   </g>
   <g id="text_3">
    <!-- 原文分句 -->
    <g style="fill: #2f2517" transform="translate(63.2075 122.45216) scale(0.128 -0.128)">
     <defs>
      <path id="HiraginoSansGB-W3-539f" d="M 2618 3968 
C 2336 3968 2131 3974 1946 3994 
C 1965 3789 1971 3629 1971 3341 
L 1971 2266 
C 1971 1997 1965 1798 1946 1606 
C 2157 1626 2368 1632 2618 1632 
L 3501 1632 
L 3501 109 
C 3501 -13 3456 -32 3226 -32 
C 2957 -32 2733 -13 2438 38 
C 2502 -147 2515 -186 2541 -378 
C 2752 -397 2874 -403 3066 -403 
C 3782 -403 3904 -333 3904 64 
L 3904 1632 
L 4819 1632 
C 5094 1632 5306 1626 5504 1606 
C 5478 1773 5472 1952 5472 2234 
L 5472 3373 
C 5472 3642 5478 3827 5504 3994 
C 5338 3974 5139 3968 4813 3968 
L 3654 3968 
C 3757 4186 3821 4365 3910 4659 
L 5267 4659 
C 5613 4659 5786 4653 5965 4627 
L 5965 5062 
C 5805 5037 5619 5024 5254 5024 
L 1690 5024 
C 1350 5024 1158 5030 915 5056 
C 941 4832 947 4640 947 4026 
C 947 1747 794 826 288 -45 
C 422 -147 506 -243 608 -384 
C 1178 595 1357 1664 1357 4198 
L 1357 4659 
L 3488 4659 
C 3430 4429 3354 4211 3238 3968 
L 2618 3968 
z
M 2355 3622 
L 5082 3622 
L 5082 3002 
L 2355 3002 
L 2355 3622 
z
M 2355 2662 
L 5082 2662 
L 5082 1971 
L 2355 1971 
L 2355 2662 
z
M 4512 1203 
C 5120 493 5370 166 5638 -250 
L 5984 26 
C 5446 723 5350 838 4826 1414 
L 4512 1203 
z
M 2387 1382 
C 2093 806 1792 454 1286 45 
C 1427 -45 1504 -109 1600 -237 
C 2061 160 2406 582 2758 1210 
L 2387 1382 
z
" transform="scale(0.015625)"/>
      <path id="HiraginoSansGB-W3-5206" d="M 4435 2637 
C 4435 1530 4358 666 4224 275 
C 4179 147 4109 115 3917 115 
C 3661 115 3373 147 3002 218 
C 3066 32 3085 -64 3104 -237 
C 3520 -275 3718 -288 3942 -288 
C 4320 -288 4467 -230 4576 -32 
C 4742 269 4864 1350 4864 2592 
C 4870 2880 4870 2931 4890 3046 
C 4704 3021 4512 3014 4218 3014 
L 2112 3014 
C 1850 3014 1632 3027 1446 3053 
L 1446 2598 
C 1645 2624 1862 2637 2106 2637 
L 2509 2637 
C 2464 2061 2374 1722 2163 1318 
C 1856 736 1370 314 550 -83 
C 685 -211 749 -294 832 -442 
C 1613 -38 2112 397 2445 954 
C 2739 1440 2893 1965 2944 2637 
L 4435 2637 
z
M 2246 5293 
C 2214 5101 2131 4902 1971 4621 
C 1542 3853 992 3264 218 2746 
C 365 2624 448 2528 531 2400 
C 1434 3066 2054 3808 2547 4800 
C 2643 4998 2669 5050 2726 5126 
L 2246 5293 
z
M 3667 5114 
C 3699 5062 3738 4992 3770 4934 
C 4371 3757 4915 3110 5926 2362 
C 6022 2528 6106 2637 6227 2752 
C 5350 3328 4806 3904 4339 4742 
C 4205 4986 4147 5114 4096 5280 
L 3667 5114 
z
" transform="scale(0.015625)"/>
      <path id="HiraginoSansGB-W3-53e5" d="M 1850 4563 
C 1939 4762 2022 4947 2080 5094 
C 2150 5267 2157 5280 2195 5350 
L 1722 5459 
C 1683 5152 1498 4710 1197 4205 
C 902 3712 627 3386 211 3008 
C 339 2906 410 2835 525 2675 
C 986 3130 1357 3622 1658 4186 
L 5344 4186 
C 5325 2650 5242 1434 5107 678 
C 4998 109 4934 13 4634 13 
C 4352 13 3968 58 3501 141 
C 3546 13 3578 -128 3584 -301 
C 3955 -352 4339 -378 4627 -378 
C 5133 -378 5306 -243 5427 243 
C 5600 947 5715 2163 5747 3571 
C 5760 4390 5760 4390 5786 4602 
C 5574 4576 5389 4563 5158 4563 
L 1850 4563 
z
M 3974 2669 
C 3974 2906 3981 3104 4006 3328 
C 3827 3302 3661 3296 3418 3296 
L 2080 3296 
C 1856 3296 1670 3302 1491 3328 
C 1510 3110 1517 2970 1517 2688 
L 1517 1114 
C 1517 858 1510 755 1485 480 
L 1920 480 
L 1920 1088 
L 3373 1088 
C 3584 1088 3789 1082 4006 1069 
C 3987 1286 3974 1491 3974 1709 
L 3974 2669 
z
M 1926 2931 
L 3578 2931 
L 3578 1453 
L 1926 1453 
L 1926 2931 
z
" transform="scale(0.015625)"/>
     </defs>
     <use xlink:href="#HiraginoSansGB-W3-539f"/>
     <use xlink:href="#HiraginoSansGB-W3-6587" transform="translate(99.999985 0)"/>
     <use xlink:href="#HiraginoSansGB-W3-5206" transform="translate(199.999969 0)"/>
     <use xlink:href="#HiraginoSansGB-W3-53e5" transform="translate(299.999954 0)"/>
    </g>
   </g>
   <g id="text_4">
    <!-- 表格整理 -->
    <g style="fill: #2f2517" transform="translate(175.6445 122.45216) scale(0.128 -0.128)">
     <defs>
      <path id="HiraginoSansGB-W3-8868" d="M 3130 2330 
C 3366 1786 3642 1350 3994 960 
C 4461 435 5050 32 5901 -352 
C 5978 -211 6054 -96 6176 32 
C 5472 294 4998 563 4531 966 
C 4915 1261 5184 1491 5459 1760 
C 5542 1843 5542 1843 5581 1882 
L 5210 2131 
C 5011 1856 4666 1530 4262 1229 
C 3904 1638 3770 1837 3539 2330 
L 5344 2330 
C 5619 2330 5843 2317 6042 2291 
L 6042 2726 
C 5882 2701 5683 2688 5344 2688 
L 3341 2688 
L 3341 3309 
L 4762 3309 
C 5152 3309 5286 3302 5440 3283 
L 5440 3693 
C 5286 3674 5139 3667 4762 3667 
L 3341 3667 
L 3341 4269 
L 5114 4269 
C 5434 4269 5626 4262 5805 4237 
L 5805 4659 
C 5632 4634 5427 4621 5101 4621 
L 3341 4621 
L 3341 4768 
C 3341 5030 3347 5152 3379 5325 
L 2912 5325 
C 2938 5171 2950 5043 2950 4768 
L 2950 4621 
L 1306 4621 
C 986 4621 781 4634 614 4659 
L 614 4237 
C 781 4262 979 4269 1293 4269 
L 2950 4269 
L 2950 3667 
L 1626 3667 
C 1267 3667 1120 3674 973 3693 
L 973 3283 
C 1114 3302 1261 3309 1626 3309 
L 2950 3309 
L 2950 2688 
L 1062 2688 
C 698 2688 518 2694 352 2726 
L 352 2291 
C 544 2317 774 2330 1062 2330 
L 2643 2330 
C 2317 2010 2093 1830 1722 1606 
C 1254 1318 832 1120 294 941 
C 429 787 493 698 550 576 
C 1120 826 1370 960 1792 1222 
L 1792 384 
C 1792 64 1760 -26 1626 -102 
L 1766 -461 
C 2176 -339 2374 -288 2765 -186 
C 3309 -45 3309 -45 3616 38 
L 3654 461 
C 3290 352 3264 346 2912 243 
C 2483 122 2483 122 2182 32 
L 2182 1491 
C 2586 1798 2797 1984 3117 2330 
L 3130 2330 
z
" transform="scale(0.015625)"/>
      <path id="HiraginoSansGB-W3-683c" d="M 2835 147 
C 2835 -173 2829 -339 2803 -493 
L 3226 -493 
L 3226 -122 
L 5216 -122 
L 5216 -493 
L 5638 -493 
C 5613 -352 5606 -173 5606 154 
L 5606 1312 
C 5606 1626 5606 1702 5626 1850 
C 5741 1798 5830 1760 6099 1645 
C 6163 1798 6227 1901 6336 2035 
C 5555 2310 5094 2547 4499 2995 
C 4883 3366 5171 3757 5459 4269 
C 5562 4442 5562 4448 5613 4518 
L 5363 4774 
C 5235 4749 5088 4742 4762 4742 
L 3680 4742 
C 3699 4781 3763 4915 3776 4960 
C 3878 5190 3885 5210 3910 5254 
L 3488 5357 
C 3360 4736 2842 3910 2266 3379 
C 2400 3296 2464 3232 2554 3110 
C 2816 3379 2976 3571 3187 3891 
C 3514 3430 3680 3232 3942 2989 
C 3398 2541 2912 2266 2106 1946 
C 2246 1811 2272 1779 2368 1619 
C 2586 1722 2586 1722 2816 1830 
C 2835 1683 2835 1600 2835 1312 
L 2835 147 
z
M 3334 1850 
C 3059 1850 3027 1850 2874 1862 
C 3456 2157 3859 2426 4224 2739 
C 4621 2400 5126 2080 5600 1862 
C 5510 1856 5344 1850 5101 1850 
L 3334 1850 
z
M 5075 4390 
C 4806 3885 4614 3622 4218 3232 
C 3866 3552 3706 3744 3392 4211 
C 3462 4326 3462 4333 3494 4390 
L 5075 4390 
z
M 3226 1504 
L 5216 1504 
L 5216 230 
L 3226 230 
L 3226 1504 
z
M 1325 4058 
L 934 4058 
C 723 4058 570 4064 467 4083 
L 467 3686 
C 602 3706 730 3712 928 3712 
L 1274 3712 
C 1082 2822 749 2029 320 1446 
C 435 1344 493 1274 589 1114 
C 768 1376 858 1542 986 1856 
C 1152 2240 1222 2477 1363 3046 
C 1338 2586 1325 2266 1325 2048 
L 1325 243 
C 1325 -96 1312 -314 1286 -499 
L 1747 -499 
C 1722 -320 1709 -102 1709 243 
L 1709 2976 
C 2086 2426 2086 2426 2214 2202 
L 2483 2477 
C 2330 2714 2118 2963 1709 3411 
L 1709 3712 
L 2003 3712 
C 2150 3712 2285 3706 2406 3693 
L 2406 4083 
C 2291 4064 2176 4058 1997 4058 
L 1709 4058 
L 1709 4685 
C 1709 4998 1715 5178 1741 5344 
L 1293 5344 
C 1318 5197 1325 5050 1325 4678 
L 1325 4058 
z
" transform="scale(0.015625)"/>
      <path id="HiraginoSansGB-W3-6574" d="M 6016 4634 
C 5811 4608 5645 4595 5427 4595 
L 4198 4595 
C 4352 4934 4358 4954 4454 5242 
L 4064 5325 
C 4019 5037 3910 4730 3744 4410 
C 3571 4083 3398 3859 3130 3616 
C 3270 3514 3322 3462 3398 3360 
C 3565 3546 3680 3686 3802 3872 
C 3936 3552 4115 3270 4365 2982 
C 3987 2637 3616 2432 3098 2285 
C 3226 2144 3226 2144 3309 1958 
C 3866 2157 4186 2342 4608 2733 
C 4966 2394 5344 2157 5888 1933 
C 5952 2093 5990 2163 6099 2304 
C 5542 2490 5261 2637 4851 2982 
C 5152 3328 5357 3718 5510 4256 
C 5805 4250 5843 4250 6016 4224 
L 6016 4634 
z
M 5126 4256 
C 5005 3827 4858 3526 4602 3219 
C 4352 3488 4173 3770 4000 4192 
C 4006 4211 4006 4211 4026 4237 
C 4026 4243 4026 4250 4032 4256 
L 5126 4256 
z
M 3002 83 
L 1958 83 
L 1958 666 
C 1958 851 1965 986 1990 1133 
L 1542 1133 
C 1568 998 1574 883 1574 666 
L 1574 83 
L 1018 83 
C 755 83 544 96 358 122 
L 358 -288 
C 563 -262 762 -250 1018 -250 
L 5427 -250 
C 5683 -250 5875 -262 6080 -288 
L 6080 122 
C 5894 96 5696 83 5427 83 
L 3373 83 
L 3373 653 
L 4787 653 
C 5037 653 5152 646 5350 621 
L 5350 1018 
C 5197 992 5050 986 4787 986 
L 3373 986 
L 3373 1491 
L 5043 1491 
C 5363 1491 5498 1485 5683 1459 
L 5683 1856 
C 5517 1830 5376 1824 5043 1824 
L 1306 1824 
C 1005 1824 864 1830 698 1856 
L 698 1459 
C 877 1485 1018 1491 1306 1491 
L 3002 1491 
L 3002 83 
z
M 2022 4909 
C 2029 5114 2029 5184 2054 5325 
L 1651 5325 
C 1670 5210 1677 5146 1683 4909 
L 928 4909 
C 666 4909 518 4915 371 4941 
L 371 4557 
C 512 4582 672 4589 922 4589 
L 1683 4589 
L 1683 4205 
L 1120 4205 
C 858 4205 742 4211 602 4230 
C 614 4109 621 4038 621 3846 
L 621 3494 
C 621 3354 614 3213 602 3085 
C 736 3104 838 3110 1088 3110 
L 1472 3110 
C 1184 2758 717 2438 192 2240 
C 307 2144 358 2086 448 1946 
C 1018 2234 1446 2592 1709 3002 
C 1690 2842 1683 2707 1683 2611 
L 1683 2381 
C 1683 2182 1677 2093 1658 1997 
L 2048 1997 
C 2029 2125 2022 2227 2022 2381 
L 2022 2682 
C 2323 2502 2643 2285 2874 2093 
L 3091 2413 
C 2758 2611 2374 2822 2022 2989 
L 2022 3110 
L 2643 3110 
C 2938 3110 3027 3104 3123 3091 
C 3110 3206 3104 3328 3104 3494 
L 3104 3846 
C 3104 4051 3110 4122 3123 4230 
C 2976 4211 2867 4205 2598 4205 
L 2022 4205 
L 2022 4589 
L 2854 4589 
C 3066 4589 3232 4582 3373 4563 
L 3373 4941 
C 3232 4915 3091 4909 2848 4909 
L 2022 4909 
z
M 1683 3917 
L 1683 3386 
L 954 3386 
L 954 3917 
L 1683 3917 
z
M 2022 3917 
L 2778 3917 
L 2778 3386 
L 2022 3386 
L 2022 3917 
z
" transform="scale(0.015625)"/>
     </defs>
     <use xlink:href="#HiraginoSansGB-W3-8868"/>
     <use xlink:href="#HiraginoSansGB-W3-683c" transform="translate(99.999985 0)"/>
     <use xlink:href="#HiraginoSansGB-W3-6574" transform="translate(199.999969 0)"/>
     <use xlink:href="#HiraginoSansGB-W3-7406" transform="translate(299.999954 0)"/>
    </g>
   </g>
   <g id="text_5">
    <!-- 人工提取 -->
    <g style="fill: #2f2517" transform="translate(288.0815 122.45216) scale(0.128 -0.128)">
     <defs>
      <path id="HiraginoSansGB-W3-4eba" d="M 2938 5242 
C 2963 5075 2970 4941 2970 4685 
C 2970 3104 2534 1875 1638 922 
C 1267 525 979 314 333 -45 
C 493 -166 570 -250 678 -422 
C 1235 -70 1498 141 1856 512 
C 2266 922 2547 1331 2771 1824 
C 2989 2298 3098 2643 3213 3251 
C 3405 2394 3648 1798 4045 1216 
C 4499 557 4960 109 5741 -422 
C 5850 -237 5920 -160 6074 -19 
C 5702 198 5536 307 5331 480 
C 4986 768 4640 1133 4384 1491 
C 4013 2016 3667 2765 3558 3283 
C 3488 3635 3418 4301 3418 4672 
C 3418 4870 3430 5133 3450 5242 
L 2938 5242 
z
" transform="scale(0.015625)"/>
      <path id="HiraginoSansGB-W3-5de5" d="M 3386 4224 
L 4928 4224 
C 5229 4224 5434 4211 5664 4186 
L 5664 4672 
C 5453 4646 5254 4634 4922 4634 
L 1517 4634 
C 1178 4634 979 4646 774 4672 
L 774 4186 
C 998 4211 1210 4224 1510 4224 
L 2925 4224 
L 2925 570 
L 1120 570 
C 781 570 582 582 365 614 
L 365 115 
C 589 147 794 160 1114 160 
L 5318 160 
C 5638 160 5862 147 6067 115 
L 6067 614 
C 5850 582 5651 570 5318 570 
L 3386 570 
L 3386 4224 
z
" transform="scale(0.015625)"/>
      <path id="HiraginoSansGB-W3-63d0" d="M 4288 1043 
L 5139 1043 
C 5402 1043 5530 1037 5696 1011 
L 5696 1414 
C 5555 1389 5402 1382 5139 1382 
L 4288 1382 
L 4288 2118 
L 5434 2118 
C 5670 2118 5837 2106 6003 2080 
L 6003 2502 
C 5843 2477 5670 2464 5434 2464 
L 2771 2464 
C 2586 2464 2426 2470 2285 2490 
L 2285 2861 
C 1978 2694 1837 2624 1651 2554 
C 1619 2534 1619 2534 1594 2528 
L 1594 3706 
L 1882 3706 
C 2074 3706 2202 3699 2317 3680 
L 2317 4096 
C 2182 4070 2106 4064 1875 4064 
L 1594 4064 
L 1594 4659 
C 1594 4954 1606 5120 1632 5293 
L 1165 5293 
C 1190 5114 1203 4941 1203 4646 
L 1203 4064 
L 838 4064 
C 659 4064 518 4077 358 4102 
L 358 3674 
C 538 3693 691 3706 832 3706 
L 1203 3706 
L 1203 2362 
C 678 2150 570 2112 314 2067 
L 429 1638 
C 525 1683 781 1792 1203 1965 
L 1203 134 
C 1203 -6 1152 -45 966 -45 
C 787 -45 634 -32 365 6 
C 422 -147 442 -250 454 -397 
C 691 -416 813 -422 966 -422 
C 1453 -422 1594 -320 1594 32 
L 1594 2131 
C 1792 2221 2003 2317 2227 2438 
L 2227 2086 
C 2381 2112 2502 2118 2746 2118 
L 3898 2118 
L 3898 224 
C 3494 365 3219 589 2950 986 
C 2989 1088 3040 1248 3085 1389 
C 3130 1562 3149 1613 3187 1715 
L 2771 1818 
C 2746 1530 2669 1254 2534 934 
C 2330 454 2118 147 1734 -230 
C 1875 -301 1958 -365 2061 -474 
C 2368 -141 2605 211 2803 627 
C 3027 352 3162 224 3347 90 
C 3757 -205 4339 -314 5446 -314 
C 5568 -314 5568 -314 6016 -307 
C 6035 -147 6061 -58 6138 109 
C 5754 77 5421 64 5094 64 
C 4768 64 4563 77 4288 122 
L 4288 1043 
z
M 4954 2950 
C 5210 2950 5421 2944 5568 2931 
C 5549 3168 5542 3302 5542 3507 
L 5542 4544 
C 5542 4774 5549 4922 5568 5056 
C 5389 5037 5235 5030 4966 5030 
L 3226 5030 
C 2970 5030 2810 5037 2624 5056 
C 2637 4902 2643 4698 2643 4461 
L 2643 3533 
C 2643 3302 2637 3117 2624 2931 
C 2784 2944 2963 2950 3200 2950 
L 4954 2950 
z
M 3021 4691 
L 5158 4691 
L 5158 4154 
L 3021 4154 
L 3021 4691 
z
M 3021 3827 
L 5158 3827 
L 5158 3283 
L 3021 3283 
L 3021 3827 
z
" transform="scale(0.015625)"/>
      <path id="HiraginoSansGB-W3-53d6" d="M 2899 4717 
L 2925 4717 
C 3078 4717 3078 4717 3360 4704 
L 3360 5101 
C 3213 5082 3098 5075 2880 5075 
L 851 5075 
C 659 5075 506 5088 352 5107 
L 352 4685 
C 512 4710 653 4717 819 4717 
L 870 4717 
L 870 928 
C 659 902 659 902 634 896 
C 403 864 397 864 288 864 
L 416 403 
C 621 474 864 525 1312 595 
C 1805 678 1805 678 2048 723 
C 2419 787 2419 787 2496 800 
L 2496 173 
C 2496 -83 2483 -307 2458 -493 
L 2938 -493 
C 2912 -339 2899 -115 2899 166 
L 2899 870 
C 3085 902 3232 928 3341 954 
L 3309 1318 
L 2899 1242 
L 2899 4717 
z
M 2496 4717 
L 2496 3770 
L 1274 3770 
L 1274 4717 
L 2496 4717 
z
M 2496 3437 
L 2496 2470 
L 1274 2470 
L 1274 3437 
L 2496 3437 
z
M 2496 2131 
L 2496 1178 
L 1274 986 
L 1274 2131 
L 2496 2131 
z
M 3725 4640 
C 3488 4640 3347 4646 3187 4672 
L 3187 4237 
C 3309 4256 3392 4262 3565 4269 
C 3642 3622 3712 3245 3827 2822 
C 3974 2298 4173 1818 4429 1376 
C 4038 819 3603 422 2995 58 
C 3104 -51 3174 -166 3251 -326 
C 3853 77 4192 403 4653 1018 
C 5024 480 5370 141 6035 -320 
C 6112 -134 6189 -13 6285 96 
C 5626 499 5280 826 4896 1376 
C 5395 2195 5754 3206 5901 4205 
C 5933 4448 5952 4582 5971 4666 
C 5818 4646 5658 4640 5491 4640 
L 3725 4640 
z
M 5498 4269 
C 5382 3539 5280 3142 5069 2605 
C 4947 2278 4819 2016 4666 1747 
C 4474 2106 4320 2490 4198 2931 
C 4077 3366 4038 3584 3955 4269 
L 5498 4269 
z
" transform="scale(0.015625)"/>
     </defs>
     <use xlink:href="#HiraginoSansGB-W3-4eba"/>
     <use xlink:href="#HiraginoSansGB-W3-5de5" transform="translate(99.999985 0)"/>
     <use xlink:href="#HiraginoSansGB-W3-63d0" transform="translate(199.999969 0)"/>
     <use xlink:href="#HiraginoSansGB-W3-53d6" transform="translate(299.999954 0)"/>
    </g>
   </g>
   <g id="text_6">
    <!-- 机器分类 -->
    <g style="fill: #2f2517" transform="translate(400.5185 122.45216) scale(0.128 -0.128)">
     <defs>
      <path id="HiraginoSansGB-W3-673a" d="M 1862 2950 
C 2106 2624 2272 2355 2490 1946 
L 2810 2227 
C 2470 2714 2400 2803 1862 3411 
L 1862 3699 
L 2374 3699 
C 2554 3699 2656 3693 2790 3667 
L 2790 4090 
C 2650 4064 2560 4058 2368 4058 
L 1862 4058 
L 1862 4794 
C 1862 5030 1869 5165 1901 5331 
L 1421 5331 
C 1446 5178 1459 5037 1459 4800 
L 1459 4058 
L 877 4058 
C 672 4058 576 4064 442 4090 
L 442 3667 
C 582 3693 653 3699 838 3699 
L 1395 3699 
C 1229 3085 1088 2733 813 2240 
C 640 1926 544 1805 256 1478 
C 384 1363 448 1274 525 1126 
C 973 1677 1242 2208 1491 3034 
C 1472 2573 1466 2253 1466 1856 
L 1466 96 
C 1466 -179 1453 -339 1421 -499 
L 1901 -499 
C 1869 -326 1862 -173 1862 102 
L 1862 2950 
z
M 3674 4979 
C 3424 4979 3270 4986 3110 5011 
C 3130 4819 3136 4704 3136 4339 
C 3136 2400 3027 1363 2758 698 
C 2618 346 2470 128 2163 -160 
C 2323 -269 2381 -314 2509 -454 
C 2835 -102 2995 160 3149 557 
C 3443 1338 3533 2266 3539 4614 
L 4723 4614 
L 4723 109 
C 4723 -218 4851 -314 5312 -314 
C 6074 -314 6125 -218 6202 1248 
C 6048 1293 5952 1331 5818 1414 
C 5818 858 5786 429 5741 250 
C 5709 109 5626 64 5402 64 
C 5190 64 5133 96 5133 198 
L 5133 4429 
C 5133 4685 5139 4838 5158 5011 
C 4998 4986 4851 4979 4595 4979 
L 3674 4979 
z
" transform="scale(0.015625)"/>
      <path id="HiraginoSansGB-W3-5668" d="M 4941 2886 
C 4646 3283 4646 3283 4538 3411 
L 4205 3238 
C 4294 3149 4294 3149 4378 3040 
C 4480 2899 4480 2899 4493 2886 
L 2944 2886 
C 3027 2995 3040 3014 3206 3290 
C 3232 3328 3270 3392 3315 3469 
L 2893 3584 
C 2880 3526 2874 3507 2848 3456 
C 2842 3578 2842 3635 2842 3872 
L 2842 4614 
C 2842 4826 2848 4986 2867 5133 
C 2714 5114 2554 5107 2323 5107 
L 1331 5107 
C 1094 5107 947 5114 781 5133 
C 800 4966 806 4806 806 4608 
L 806 3910 
C 806 3731 800 3578 781 3411 
C 960 3430 1126 3437 1325 3437 
L 2317 3437 
C 2586 3437 2746 3430 2835 3424 
C 2765 3258 2669 3117 2483 2886 
L 1011 2886 
C 730 2886 550 2899 371 2925 
L 371 2496 
C 544 2522 742 2534 1011 2534 
L 2163 2534 
C 1837 2221 1574 2029 1165 1805 
C 851 1626 698 1562 243 1414 
C 352 1280 422 1146 442 1062 
C 672 1165 691 1171 966 1306 
L 966 90 
C 966 -122 954 -314 928 -480 
L 1350 -480 
L 1350 -166 
L 2509 -166 
L 2509 -422 
L 2912 -422 
C 2886 -282 2880 -128 2880 64 
L 2880 1197 
C 2880 1414 2886 1568 2906 1715 
C 2746 1696 2598 1690 2374 1690 
L 1651 1690 
C 2016 1920 2342 2202 2656 2534 
L 3622 2534 
C 3955 2176 4294 1901 4666 1690 
L 3898 1690 
C 3674 1690 3520 1696 3366 1715 
C 3386 1536 3392 1408 3392 1197 
L 3392 6 
C 3392 -179 3379 -326 3360 -474 
L 3770 -474 
L 3770 -166 
L 5024 -166 
L 5024 -474 
L 5446 -474 
C 5421 -339 5408 -122 5408 90 
L 5408 1306 
C 5549 1235 5760 1152 5990 1062 
C 6086 1254 6093 1267 6214 1421 
C 5651 1574 5286 1715 4870 1965 
C 4544 2150 4390 2266 4096 2534 
L 5382 2534 
C 5632 2534 5818 2522 6016 2496 
L 6016 2925 
C 5843 2899 5651 2886 5382 2886 
L 4941 2886 
z
M 1184 4781 
L 2470 4781 
L 2470 3757 
L 1184 3757 
L 1184 4781 
z
M 1350 1363 
L 2509 1363 
L 2509 173 
L 1350 173 
L 1350 1363 
z
M 3770 1363 
L 5024 1363 
L 5024 173 
L 3770 173 
L 3770 1363 
z
M 5555 4608 
C 5555 4832 5562 4979 5581 5133 
C 5408 5114 5267 5107 5024 5107 
L 3974 5107 
C 3738 5107 3584 5114 3430 5133 
C 3450 4979 3456 4813 3456 4621 
L 3456 3872 
C 3456 3693 3450 3578 3430 3411 
C 3584 3430 3757 3437 3981 3437 
L 5030 3437 
C 5235 3437 5402 3430 5581 3411 
C 5562 3565 5555 3706 5555 3910 
L 5555 4608 
z
M 3834 4781 
L 5171 4781 
L 5171 3757 
L 3834 3757 
L 3834 4781 
z
" transform="scale(0.015625)"/>
      <path id="HiraginoSansGB-W3-7c7b" d="M 3373 3386 
C 3488 3334 3725 3232 3942 3123 
C 4736 2752 5094 2554 5542 2253 
L 5773 2630 
C 5094 3021 4269 3398 3366 3738 
L 3366 3827 
L 5357 3827 
C 5600 3827 5805 3814 6010 3789 
L 6010 4211 
C 5837 4186 5638 4173 5357 4173 
L 3366 4173 
L 3366 4928 
C 3366 5120 3373 5203 3398 5350 
L 2938 5350 
C 2963 5203 2976 5107 2976 4928 
L 2976 4173 
L 1146 4173 
C 896 4173 691 4186 493 4211 
L 493 3789 
C 678 3814 890 3827 1146 3827 
L 2554 3827 
C 1869 3245 1395 2989 403 2669 
C 531 2541 589 2458 672 2298 
C 1350 2573 1773 2790 2189 3078 
C 2541 3328 2803 3552 2982 3750 
L 2982 3213 
C 2982 2957 2970 2790 2938 2630 
L 3398 2630 
C 3373 2816 3373 2899 3373 3213 
L 3373 3386 
z
M 3142 1370 
C 3629 467 4435 -102 5798 -493 
C 5894 -301 5939 -237 6061 -77 
C 4774 211 4019 646 3526 1370 
L 5350 1370 
C 5619 1370 5856 1357 6042 1331 
L 6042 1766 
C 5830 1741 5626 1728 5350 1728 
L 3251 1728 
C 3290 1907 3309 2048 3334 2272 
C 3341 2362 3341 2374 3354 2445 
L 2899 2458 
C 2899 2374 2906 2336 2906 2272 
C 2906 2086 2886 1926 2835 1728 
L 1069 1728 
C 768 1728 570 1741 384 1766 
L 384 1331 
C 563 1357 768 1370 1069 1370 
L 2707 1370 
C 2566 1056 2349 800 2054 582 
C 1619 269 1210 96 346 -128 
C 467 -256 538 -346 634 -499 
C 1478 -243 1914 -38 2362 314 
C 2733 602 2970 928 3142 1370 
z
M 1370 5030 
C 1606 4781 1728 4614 1926 4275 
L 2266 4448 
C 2048 4781 1933 4928 1696 5197 
L 1370 5030 
z
M 4666 5210 
C 4512 4941 4294 4666 4006 4390 
L 4307 4211 
C 4544 4410 4730 4621 5037 5018 
L 4666 5210 
z
" transform="scale(0.015625)"/>
     </defs>
     <use xlink:href="#HiraginoSansGB-W3-673a"/>
     <use xlink:href="#HiraginoSansGB-W3-5668" transform="translate(99.999985 0)"/>
     <use xlink:href="#HiraginoSansGB-W3-5206" transform="translate(199.999969 0)"/>
     <use xlink:href="#HiraginoSansGB-W3-7c7b" transform="translate(299.999954 0)"/>
    </g>
   </g>
   <g id="text_7">
    <!-- 人工校对 -->
    <g style="fill: #2f2517" transform="translate(512.9555 122.45216) scale(0.128 -0.128)">
     <defs>
      <path id="HiraginoSansGB-W3-6821" d="M 4723 2650 
C 4595 2182 4410 1798 4102 1357 
C 3821 1754 3642 2125 3501 2611 
L 3110 2426 
C 3149 2342 3149 2342 3232 2176 
C 3539 1542 3539 1542 3610 1427 
C 3686 1293 3776 1171 3859 1050 
C 3642 800 3437 621 3168 429 
C 2822 186 2560 58 2061 -128 
C 2176 -250 2227 -326 2310 -486 
C 3110 -154 3552 154 4102 749 
C 4614 179 5088 -141 5926 -474 
C 5997 -314 6054 -218 6163 -83 
C 5632 102 5344 243 4992 480 
C 4742 646 4589 774 4346 1043 
C 4576 1363 4704 1587 4909 2022 
C 5088 2394 5088 2394 5126 2470 
L 4723 2650 
z
M 1690 2931 
C 1741 2861 1741 2861 1773 2822 
C 1939 2605 1984 2547 2093 2342 
L 2381 2586 
C 2157 2893 2042 3027 1722 3360 
L 1690 3398 
L 1690 3686 
L 2016 3686 
C 2163 3686 2298 3680 2426 3667 
L 2426 4058 
C 2304 4038 2202 4032 2010 4032 
L 1690 4032 
L 1690 4685 
C 1690 5011 1696 5184 1722 5344 
L 1261 5344 
C 1286 5190 1293 5050 1293 4678 
L 1293 4032 
L 870 4032 
C 659 4032 525 4038 403 4058 
L 403 3661 
C 525 3680 678 3686 864 3686 
L 1235 3686 
C 1024 2822 627 1978 205 1485 
C 314 1357 371 1274 461 1107 
C 870 1677 1126 2253 1325 3046 
C 1299 2496 1293 2330 1293 2042 
L 1293 237 
C 1293 -109 1280 -314 1254 -506 
L 1728 -506 
C 1696 -320 1690 -122 1690 237 
L 1690 2931 
z
M 4563 4397 
C 4365 4749 4134 5088 3936 5325 
L 3622 5126 
C 3898 4749 3942 4685 4109 4397 
L 3162 4397 
C 2886 4397 2669 4410 2502 4435 
L 2502 3994 
C 2669 4019 2912 4032 3168 4032 
L 5408 4032 
C 5651 4032 5882 4019 6067 4000 
L 6067 4429 
C 5894 4410 5664 4397 5408 4397 
L 4563 4397 
z
M 3354 3840 
C 3046 3155 2829 2861 2317 2426 
C 2451 2310 2509 2253 2592 2125 
C 3091 2592 3334 2931 3712 3674 
L 3354 3840 
z
M 4499 3642 
C 4902 3264 5414 2669 5722 2221 
L 6035 2515 
C 5792 2829 5459 3200 5190 3475 
C 4909 3763 4909 3763 4813 3866 
L 4499 3642 
z
" transform="scale(0.015625)"/>
     </defs>
     <use xlink:href="#HiraginoSansGB-W3-4eba"/>
     <use xlink:href="#HiraginoSansGB-W3-5de5" transform="translate(99.999985 0)"/>
     <use xlink:href="#HiraginoSansGB-W3-6821" transform="translate(199.999969 0)"/>
     <use xlink:href="#HiraginoSansGB-W3-5bf9" transform="translate(299.999954 0)"/>
    </g>
   </g>
   <g id="text_8">
    <!-- 格式校核 -->
    <g style="fill: #2f2517" transform="translate(625.3925 122.45216) scale(0.128 -0.128)">
     <defs>
      <path id="HiraginoSansGB-W3-5f0f" d="M 5363 3693 
C 5632 3693 5837 3680 6022 3654 
L 6022 4115 
C 5862 4090 5677 4077 5402 4077 
L 4198 4077 
C 4186 4371 4186 4499 4186 4634 
C 4186 4896 4198 5082 4224 5222 
L 3731 5222 
C 3763 4992 3763 4986 3770 4762 
C 3776 4288 3776 4288 3782 4077 
L 1120 4077 
C 838 4077 640 4090 461 4115 
L 461 3654 
C 678 3680 858 3693 1120 3693 
L 3795 3693 
C 3802 3674 3802 3667 3802 3642 
C 3846 2573 4013 1677 4307 915 
C 4602 154 5043 -352 5421 -352 
C 5581 -352 5715 -262 5830 -83 
C 5952 115 6029 371 6144 915 
C 5978 986 5907 1037 5766 1165 
C 5664 461 5549 115 5408 115 
C 5363 115 5293 160 5203 237 
C 5011 410 4838 704 4672 1146 
C 4531 1510 4448 1830 4352 2349 
C 4275 2810 4256 2963 4218 3693 
L 5363 3693 
z
M 2310 2349 
L 2963 2349 
C 3206 2349 3373 2342 3533 2317 
L 3533 2746 
C 3373 2720 3232 2714 2957 2714 
L 1299 2714 
C 1024 2714 870 2720 717 2746 
L 717 2317 
C 877 2342 1050 2349 1293 2349 
L 1901 2349 
L 1901 544 
C 1082 390 1082 390 883 371 
C 627 346 627 346 499 346 
L 595 -109 
C 672 -90 794 -64 883 -45 
C 1946 147 2803 333 3750 582 
L 3750 973 
C 2835 730 2675 691 2310 621 
L 2310 2349 
z
M 5600 4474 
C 5325 4755 5158 4896 4787 5165 
L 4493 4947 
C 4845 4698 5018 4544 5299 4230 
L 5600 4474 
z
" transform="scale(0.015625)"/>
     </defs>
     <use xlink:href="#HiraginoSansGB-W3-683c"/>
     <use xlink:href="#HiraginoSansGB-W3-5f0f" transform="translate(99.999985 0)"/>
     <use xlink:href="#HiraginoSansGB-W3-6821" transform="translate(199.999969 0)"/>
     <use xlink:href="#HiraginoSansGB-W3-6838" transform="translate(299.999954 0)"/>
    </g>
   </g>
  </g>
 </g>
 <defs>
  <clipPath id="p22e1dc939c">
   <rect x="7.2" y="7.2" width="725.4" height="210.672"/>
  </clipPath>
 </defs>
</svg>
